<svg width="65" height="37" viewBox="0 0 65 37" fill="none" xmlns="http://www.w3.org/2000/svg">
<path d="M13.3247 3.52923C12.0077 3.52923 11.0108 3.72 10.3339 4.10154C9.66928 4.48308 9.38005 5.14769 9.4662 6.09538L10.1124 12.28C10.1493 12.5877 10.1677 12.8954 10.1677 13.2031C10.1677 14.68 9.73697 15.8 8.87543 16.5631C8.0262 17.3138 6.79543 17.8185 5.18312 18.0769C6.85697 18.3477 8.1062 18.8462 8.93082 19.5723C9.75543 20.2862 10.1677 21.3877 10.1677 22.8769C10.1677 23.1846 10.1493 23.5169 10.1124 23.8738L9.4662 30.0585C9.45389 30.1323 9.44774 30.2308 9.44774 30.3538C9.44774 31.1908 9.78005 31.7754 10.4447 32.1077C11.1216 32.4523 12.0816 32.6246 13.3247 32.6246V36.1138C10.5062 36.1138 8.40158 35.6954 7.01082 34.8585C5.62005 34.0338 4.92466 32.6431 4.92466 30.6862C4.92466 30.3538 4.94312 30.0154 4.98005 29.6708L5.58928 23.7815C5.61389 23.5108 5.6262 23.3262 5.6262 23.2277C5.6262 22.0954 5.19543 21.2831 4.33389 20.7908C3.47235 20.2985 2.14312 20.0523 0.3462 20.0523V16.1015C2.13082 16.1015 3.45389 15.8554 4.31543 15.3631C5.18928 14.8708 5.6262 14.0646 5.6262 12.9446C5.6262 12.8215 5.61389 12.6369 5.58928 12.3908L4.98005 6.50154C4.94312 6.13231 4.92466 5.78154 4.92466 5.44923C4.92466 3.49231 5.62005 2.10154 7.01082 1.27692C8.40158 0.452309 10.5062 0.0400016 13.3247 0.0400016V3.52923ZM25.3285 25.3138C25.3285 26.8769 26.2516 27.6585 28.0977 27.6585C29.0331 27.6585 30.0116 27.4554 31.0331 27.0492L32.2331 30.3723C30.7069 31.16 28.9408 31.5538 26.9346 31.5538C24.83 31.5538 23.2239 30.9569 22.1162 29.7631C21.0085 28.5692 20.4546 26.9138 20.4546 24.7969V7.09231H14.6023V3.64H25.3285V25.3138ZM47.0985 10.9138C47.6892 10.9138 48.2246 10.9631 48.7046 11.0615C49.1969 11.1477 49.6831 11.2769 50.1631 11.4492L49.2954 19.0738H46.0462V15.2523C44.8031 15.3508 43.7138 15.9108 42.7785 16.9323C41.8554 17.9538 41.1231 19.3385 40.5815 21.0862V27.6215H44.4769V31H32.9569V27.6215H35.7077V14.8092H32.9569V11.4492H39.4185L40.3231 15.9354C41.0492 14.2492 41.9538 12.9938 43.0369 12.1692C44.1323 11.3323 45.4862 10.9138 47.0985 10.9138ZM51.6807 0.0400016C54.4992 0.0400016 56.6038 0.458463 57.9946 1.29538C59.3854 2.12 60.0807 3.51077 60.0807 5.46769C60.0807 5.78769 60.0623 6.12615 60.0254 6.48308L59.4161 12.3908C59.3915 12.6369 59.3792 12.8092 59.3792 12.9077C59.3792 14.0277 59.8223 14.84 60.7084 15.3446C61.5946 15.8492 62.9115 16.1015 64.6592 16.1015V20.0523C62.9115 20.0523 61.5946 20.3046 60.7084 20.8092C59.8223 21.3138 59.3792 22.1323 59.3792 23.2646C59.3792 23.3631 59.3915 23.5354 59.4161 23.7815L60.0254 29.6523C60.0623 30.0215 60.0807 30.3723 60.0807 30.7046C60.0807 32.6615 59.3854 34.0523 57.9946 34.8769C56.6038 35.7015 54.4992 36.1138 51.6807 36.1138V32.6246C52.9977 32.6246 53.9884 32.4338 54.6531 32.0523C55.33 31.6708 55.6254 31.0062 55.5392 30.0585L54.8931 23.8738C54.8561 23.5415 54.8377 23.2277 54.8377 22.9323C54.8377 21.4308 55.2684 20.3108 56.13 19.5723C57.0038 18.8338 58.29 18.3415 59.9884 18.0954C58.253 17.8246 56.9607 17.32 56.1115 16.5815C55.2623 15.8431 54.8377 14.7292 54.8377 13.24C54.8377 12.9323 54.8561 12.6123 54.8931 12.28L55.5392 6.09538C55.5515 6.02154 55.5577 5.92308 55.5577 5.8C55.5577 4.96308 55.2192 4.37846 54.5423 4.04616C53.8777 3.70154 52.9238 3.52923 51.6807 3.52923V0.0400016Z" fill="#546BEB"/>
</svg>
